<svg xmlns="http://www.w3.org/2000/svg" xmlns:xlink="http://www.w3.org/1999/xlink" width="18" height="18"><defs><path d="M17.05 9c0-4.37-3.54-7.92-7.91-7.92-4.38 0-7.92 3.55-7.92 7.92s3.54 7.92 7.92 7.92c4.37 0 7.91-3.55 7.91-7.92z" id="a"/><path d="M11.65 6.47c-.18 0-.36.09-.46.25-.19.27-1.13 1.65-2.83 4.11-.76-1.12-1.19-1.74-1.27-1.86a.562.562 0 00-.47-.25h-.84c-.12 0-.19.14-.12.24.23.32 2.02 2.93 2.24 3.26.05.08.12.14.2.18.08.05.17.07.26.07s.18-.02.26-.07c.08-.04.15-.1.21-.18.38-.55 3.4-4.96 3.78-5.51.07-.1 0-.24-.12-.24h-.84z" id="b"/></defs><use xlink:href="#a" fill-opacity="0"/><use xlink:href="#a" fill-opacity="0" stroke="#32a73c" stroke-width="2"/><use xlink:href="#b" fill="#32a73c"/><use xlink:href="#b" fill-opacity="0" stroke="#000" stroke-opacity="0"/></svg>