<svg width="175" height="44" fill="none" xmlns="http://www.w3.org/2000/svg"><path d="M72.307 30.8l-4.11-5.94c-.463.053-.943.08-1.44.08h-4.83v5.86h-1.901V12.32h6.732c2.295 0 4.093.563 5.395 1.69 1.302 1.126 1.953 2.675 1.953 4.646 0 1.443-.36 2.666-1.08 3.67-.701.985-1.712 1.698-3.031 2.138l4.393 6.336h-2.08zm-5.6-7.524c1.78 0 3.142-.405 4.084-1.214.943-.81 1.414-1.945 1.414-3.406 0-1.496-.471-2.64-1.414-3.432-.942-.81-2.303-1.214-4.085-1.214h-4.779v9.266h4.78zM78.592 12.32h1.902V30.8h-1.902V12.32zm15.565 18.638c-1.782 0-3.392-.404-4.83-1.214a8.914 8.914 0 01-3.367-3.353c-.805-1.443-1.207-3.053-1.207-4.831 0-1.778.402-3.38 1.207-4.805a8.809 8.809 0 013.392-3.379c1.439-.81 3.049-1.214 4.83-1.214 1.336 0 2.57.228 3.7.686a7.666 7.666 0 012.878 2.006l-1.208 1.241c-1.404-1.46-3.177-2.191-5.318-2.191-1.422 0-2.715.334-3.88 1.003a7.324 7.324 0 00-2.75 2.746c-.65 1.161-.976 2.464-.976 3.907s.326 2.746.977 3.907a7.324 7.324 0 002.749 2.746c1.165.669 2.458 1.003 3.88 1.003 2.158 0 3.93-.74 5.318-2.218l1.208 1.241a7.886 7.886 0 01-2.903 2.033c-1.131.458-2.364.686-3.7.686zm25.687-18.638V30.8h-1.876v-8.527h-11.254V30.8h-1.901V12.32h1.901v8.237h11.254V12.32h1.876zm17.201 8.95c1.182.264 2.09.792 2.723 1.584.651.774.977 1.777.977 3.01 0 1.583-.574 2.806-1.722 3.669-1.13.845-2.809 1.267-5.036 1.267h-8.273V12.32h7.759c2.005 0 3.555.414 4.651 1.24 1.113.828 1.67 1.998 1.67 3.512 0 1.02-.248 1.892-.745 2.614-.48.704-1.148 1.232-2.004 1.584zm-9.43-7.34v6.706h5.73c1.456 0 2.578-.282 3.366-.845.788-.58 1.182-1.417 1.182-2.508s-.394-1.918-1.182-2.481c-.788-.581-1.91-.872-3.366-.872h-5.73zm6.347 15.26c1.61 0 2.826-.282 3.648-.845.822-.563 1.233-1.443 1.233-2.64 0-2.306-1.627-3.459-4.881-3.459h-6.347v6.944h6.347zm23.841-.08v1.69h-12.718V12.32h12.333v1.69h-10.432v6.573h9.301v1.663h-9.301v6.864h10.817zm17.188 0v1.69h-12.719V12.32h12.333v1.69h-10.431v6.573h9.301v1.663h-9.301v6.864h10.817zM35.685 0H7.137A7.042 7.042 0 002.09 2.148 7.437 7.437 0 000 7.333v29.334c0 1.945.752 3.81 2.09 5.185A7.041 7.041 0 007.137 44h28.548a7.041 7.041 0 005.047-2.148 7.437 7.437 0 002.09-5.185V7.333c0-1.945-.751-3.81-2.09-5.185A7.041 7.041 0 0035.685 0zm-18.1 29.407L11.877 19.14H18.3l5.71 10.267h-6.423zm13.818 7.26l-9.992-17.6h6.424a4.745 4.745 0 002.769-.822 3.05 3.05 0 00.843-2.112c0-.79-.303-1.549-.843-2.112a2.848 2.848 0 00-.947-.623 2.787 2.787 0 00-1.109-.198H8.565L4.996 7.333h23.552a8.403 8.403 0 014.755 1.486 8.754 8.754 0 013.15 3.948 9.024 9.024 0 01.488 5.081 8.877 8.877 0 01-2.34 4.504 8.35 8.35 0 01-3.64 2.215l6.866 12.1h-6.424z" fill="#383838"/></svg>