<?xml version="1.0" encoding="UTF-8" standalone="no"?>
<!DOCTYPE svg PUBLIC "-//W3C//DTD SVG 1.1//EN" "http://www.w3.org/Graphics/SVG/1.1/DTD/svg11.dtd">
<svg version="1.1" xmlns="http://www.w3.org/2000/svg" xmlns:xlink="http://www.w3.org/1999/xlink" preserveAspectRatio="xMidYMid meet" viewBox="0 0 18 18" width="18" height="18"><defs><path d="M17.05 9C17.05 4.63 13.51 1.08 9.14 1.08C4.76 1.08 1.22 4.63 1.22 9C1.22 13.37 4.76 16.92 9.14 16.92C13.51 16.92 17.05 13.37 17.05 9Z" id="a8kFHskbU"></path><path d="M11.65 6.47C11.47 6.47 11.29 6.56 11.19 6.72C11 6.99 10.06 8.37 8.36 10.83C7.6 9.71 7.17 9.09 7.09 8.97C6.98 8.81 6.81 8.72 6.62 8.72C6.54 8.72 5.86 8.72 5.78 8.72C5.66 8.72 5.59 8.86 5.66 8.96C5.89 9.28 7.68 11.89 7.9 12.22C7.95 12.3 8.02 12.36 8.1 12.4C8.18 12.45 8.27 12.47 8.36 12.47C8.45 12.47 8.54 12.45 8.62 12.4C8.7 12.36 8.77 12.3 8.83 12.22C9.21 11.67 12.23 7.26 12.61 6.71C12.68 6.61 12.61 6.47 12.49 6.47C12.32 6.47 11.73 6.47 11.65 6.47Z" id="bCUQZNQoq"></path></defs><g><g><g><use xlink:href="#a8kFHskbU" opacity="1" fill="#000000" fill-opacity="0"></use><g><use xlink:href="#a8kFHskbU" opacity="1" fill-opacity="0" stroke="#32a73c" stroke-width="2" stroke-opacity="1"></use></g></g><g><use xlink:href="#bCUQZNQoq" opacity="1" fill="#32a73c" fill-opacity="1"></use><g><use xlink:href="#bCUQZNQoq" opacity="1" fill-opacity="0" stroke="#000000" stroke-width="1" stroke-opacity="0"></use></g></g></g></g></svg>