<?xml version="1.0"?>
<svg width="640" height="480" xmlns="http://www.w3.org/2000/svg" xmlns:svg="http://www.w3.org/2000/svg" xmlns:xlink="http://www.w3.org/1999/xlink">
 <!-- Created with SVG-edit - https://github.com/SVG-Edit/svgedit-->
 <defs>
  <symbol height="50" id="svg_6" preserveAspectRatio="xMidYMid meet" viewBox="0 0 60 50" width="60" xmlns="http://www.w3.org/2000/svg" xmlns:xlink="http://www.w3.org/1999/xlink">
   <defs>
    <path d="m59.43,17.58l-6.26,-3.76c0,-7.59 0,-11.81 0,-12.65c0,-0.65 -0.52,-1.17 -1.17,-1.17c-4.4,0 -39.6,0 -44,0c-0.65,0 -1.17,0.52 -1.17,1.17c0,1.26 0,11.35 0,12.61c-2.09,1.27 -4.18,2.54 -6.27,3.8c0,0 0,0.01 0,0.01c-0.34,0.21 -0.56,0.59 -0.56,1c0,3.04 0,27.42 0,30.46c0,0.65 0.52,1.18 1.17,1.18c2.39,0 21.52,0 23.91,0c0.65,0 1.17,-0.53 1.17,-1.18c0,-0.64 -0.52,-1.17 -1.17,-1.17c-1.32,0 -7.89,0 -19.72,0l24.5,-14.87l24.74,14.87c-11.81,0 -18.37,0 -19.68,0c-0.65,0 -1.17,0.53 -1.17,1.17c0,0.65 0.52,1.18 1.17,1.18c2.39,0 21.52,0 23.91,0c0.65,0 1.17,-0.53 1.17,-1.18c0,-3.04 0,-27.42 0,-30.46c0,-0.42 -0.22,-0.8 -0.57,-1.01c0,0 0,0 0,0zm-1.77,3.08c0,1.75 0,10.53 0,26.32c-13.14,-7.89 -20.44,-12.28 -21.9,-13.16c5.61,-3.37 11.23,-6.75 16.84,-10.12c1.69,-1.02 3.37,-2.03 5.06,-3.04zm-4.49,-0.04c0,-0.27 0,-1.63 0,-4.07l3.38,2.04c-1.5,0.9 -2.63,1.58 -3.38,2.03zm-29.16,13.2l-21.67,13.15l0,-26.3c0.95,0.57 1.47,0.89 1.58,0.95c1.15,0.71 2.31,1.41 3.47,2.11c2.22,1.35 7.76,4.71 16.62,10.09zm-18.88,-14.2c-0.17,-0.1 -1.53,-0.93 -1.7,-1.03c1.13,-0.69 2.27,-1.38 3.4,-2.07c0,0.28 0,1.65 0,4.13c-0.76,-0.46 -1.32,-0.8 -1.7,-1.03zm21.14,12.83l-17.1,-10.38l0,-19.73l41.66,0c0,11.81 0,18.38 0,19.69c-5.78,3.47 -11.57,6.95 -17.35,10.42c-0.3,-0.18 -2.72,-1.63 -3.02,-1.81c-0.37,-0.23 -0.84,-0.23 -1.21,0c-0.4,0.24 -1.39,0.84 -2.98,1.81z" id="svg_5"/>
    <path d="m31.17,48.83c0,-0.65 -0.52,-1.17 -1.17,-1.17c-0.65,0 -1.17,0.52 -1.17,1.17c0,0.65 0.52,1.17 1.17,1.17c0.65,0 1.17,-0.52 1.17,-1.17z" id="svg_4"/>
    <path d="m39.96,10.78c0.65,0 1.17,-0.53 1.17,-1.17c0,-0.65 -0.52,-1.18 -1.17,-1.18c-1.99,0 -17.93,0 -19.92,0c-0.65,0 -1.17,0.53 -1.17,1.18c0,0.64 0.52,1.17 1.17,1.17c3.98,0 17.93,0 19.92,0z" id="svg_3"/>
    <path d="m39.96,24.59c0.65,0 1.17,-0.53 1.17,-1.17c0,-0.65 -0.52,-1.17 -1.17,-1.17c-1.99,0 -17.93,0 -19.92,0c-0.65,0 -1.17,0.52 -1.17,1.17c0,0.64 0.52,1.17 1.17,1.17c3.98,0 17.93,0 19.92,0z" id="svg_2"/>
    <path d="m44.2,15.41c-2.93,0 -26.37,0 -29.3,0c-0.65,0 -1.17,0.52 -1.17,1.17c0,0.65 0.52,1.17 1.17,1.17c2.93,0 26.37,0 29.3,0c0.64,0 1.17,-0.52 1.17,-1.17c0,-0.65 -0.53,-1.17 -1.17,-1.17z" id="svg_1"/>
   </defs>
   <g>
    <g>
     <g>
      <use fill="#383838" xlink:href="#svg_5"/>
      <g>
       <use fill-opacity="0" stroke="#000000" stroke-opacity="0" xlink:href="#svg_5"/>
      </g>
     </g>
     <g>
      <use fill="#383838" xlink:href="#svg_4"/>
      <g>
       <use fill-opacity="0" stroke="#000000" stroke-opacity="0" xlink:href="#svg_4"/>
      </g>
     </g>
     <g>
      <use fill="#383838" xlink:href="#svg_3"/>
      <g>
       <use fill-opacity="0" stroke="#000000" stroke-opacity="0" xlink:href="#svg_3"/>
      </g>
     </g>
     <g>
      <use fill="#383838" xlink:href="#svg_2"/>
      <g>
       <use fill-opacity="0" stroke="#000000" stroke-opacity="0" xlink:href="#svg_2"/>
      </g>
     </g>
     <g>
      <use fill="#383838" xlink:href="#svg_1"/>
      <g>
       <use fill-opacity="0" stroke="#000000" stroke-opacity="0" xlink:href="#svg_1"/>
      </g>
     </g>
    </g>
   </g>
  </symbol>
 </defs>
 <g class="layer">
  <title>Layer 1</title>
  <path d="m23.752101,4.208074c0,0 -0.966387,53.753883 -0.966387,53.753883c0,0 46.386555,32.25233 45.627251,32.042899c-0.759304,-0.209431 11.389556,-6.631973 11.389556,-6.631973c0,0 10.630252,6.841403 10.630252,6.841403c0,0 47.352941,-30.297643 47.352941,-30.297643c0,0 -0.966387,-55.708569 -1.72569,-55.918c-0.759304,-0.209431 -112.307923,0.209431 -112.307923,0.209431z" fill="#ffffff" id="svg_11" stroke="#ffffff" stroke-dasharray="null" stroke-linecap="null" stroke-linejoin="null" stroke-width="5"/>
  <use id="svg_7" transform="matrix(2.66667 0 0 2.66667 0 0)" x="0" xlink:href="#svg_6" y="0"/>
  <g id="svg_8"/>
 </g>
</svg>