<svg width="175" height="44" viewBox="0 0 175 44" fill="none" xmlns="http://www.w3.org/2000/svg">
<path d="M72.3074 30.8L68.1964 24.86C67.7339 24.9128 67.2543 24.9392 66.7576 24.9392H61.9272V30.8H60.0258V12.32H66.7576C69.0529 12.32 70.8514 12.8832 72.1532 14.0096C73.455 15.136 74.1059 16.6848 74.1059 18.656C74.1059 20.0992 73.7462 21.3224 73.0268 22.3256C72.3245 23.3112 71.3139 24.024 69.9949 24.464L74.3885 30.8H72.3074ZM66.7062 23.276C68.4876 23.276 69.8494 22.8712 70.7914 22.0616C71.7335 21.252 72.2046 20.1168 72.2046 18.656C72.2046 17.16 71.7335 16.016 70.7914 15.224C69.8494 14.4144 68.4876 14.0096 66.7062 14.0096H61.9272V23.276H66.7062ZM78.5934 12.32H80.4948V30.8H78.5934V12.32ZM94.1576 30.9584C92.3762 30.9584 90.766 30.5536 89.3272 29.744C87.9055 28.9344 86.7835 27.8168 85.9613 26.3912C85.1563 24.948 84.7537 23.3376 84.7537 21.56C84.7537 19.7824 85.1563 18.1808 85.9613 16.7552C86.7835 15.312 87.9141 14.1856 89.3529 13.376C90.7917 12.5664 92.4019 12.1616 94.1833 12.1616C95.5193 12.1616 96.7526 12.3904 97.8832 12.848C99.0137 13.3056 99.9729 13.9744 100.761 14.8544L99.5532 16.0952C98.1487 14.6344 96.3758 13.904 94.2347 13.904C92.813 13.904 91.5197 14.2384 90.3549 14.9072C89.1902 15.576 88.2738 16.4912 87.6057 17.6528C86.9548 18.8144 86.6294 20.1168 86.6294 21.56C86.6294 23.0032 86.9548 24.3056 87.6057 25.4672C88.2738 26.6288 89.1902 27.544 90.3549 28.2128C91.5197 28.8816 92.813 29.216 94.2347 29.216C96.3929 29.216 98.1658 28.4768 99.5532 26.9984L100.761 28.2392C99.9729 29.1192 99.0051 29.7968 97.8575 30.272C96.7269 30.7296 95.4937 30.9584 94.1576 30.9584ZM119.845 12.32V30.8H117.969V22.2728H106.715V30.8H104.814V12.32H106.715V20.5568H117.969V12.32H119.845ZM137.046 21.2696C138.228 21.5336 139.136 22.0616 139.769 22.8536C140.42 23.628 140.746 24.6312 140.746 25.8632C140.746 27.4472 140.172 28.6704 139.024 29.5328C137.894 30.3776 136.215 30.8 133.988 30.8H125.715V12.32H133.474C135.479 12.32 137.029 12.7336 138.125 13.5608C139.238 14.388 139.795 15.5584 139.795 17.072C139.795 18.0928 139.547 18.964 139.05 19.6856C138.57 20.3896 137.902 20.9176 137.046 21.2696ZM127.616 13.9304V20.636H133.346C134.802 20.636 135.924 20.3544 136.712 19.7912C137.5 19.2104 137.894 18.3744 137.894 17.2832C137.894 16.192 137.5 15.3648 136.712 14.8016C135.924 14.2208 134.802 13.9304 133.346 13.9304H127.616ZM133.963 29.1896C135.573 29.1896 136.789 28.908 137.611 28.3448C138.433 27.7816 138.844 26.9016 138.844 25.7048C138.844 23.3992 137.217 22.2464 133.963 22.2464H127.616V29.1896H133.963ZM157.804 29.1104V30.8H145.086V12.32H157.419V14.0096H146.987V20.5832H156.288V22.2464H146.987V29.1104H157.804ZM174.992 29.1104V30.8H162.273V12.32H174.606V14.0096H164.175V20.5832H173.476V22.2464H164.175V29.1104H174.992Z" fill="#383838"/>
<path d="M35.6855 0H7.1371C5.24422 0 3.42888 0.772617 2.09041 2.14789C0.751942 3.52315 0 5.38842 0 7.33333V36.6667C0 38.6116 0.751942 40.4769 2.09041 41.8521C3.42888 43.2274 5.24422 44 7.1371 44H35.6855C37.5784 44 39.3938 43.2274 40.7321 41.8521C42.0706 40.4769 42.8226 38.6116 42.8226 36.6667V7.33333C42.8226 5.38842 42.0706 3.52315 40.7321 2.14789C39.3938 0.772617 37.5784 0 35.6855 0ZM17.5858 29.4067L11.8761 19.14H18.2995L24.0092 29.4067H17.5858ZM31.4032 36.6667L21.4113 19.0667H27.8347C28.8175 19.0882 29.7834 18.8018 30.6039 18.2453C31.1443 17.6827 31.4473 16.9239 31.4473 16.1333C31.4473 15.3428 31.1443 14.584 30.6039 14.0213C30.3314 13.7512 30.0093 13.5395 29.6565 13.3985C29.3035 13.2575 28.9269 13.19 28.5484 13.2H8.56452L4.99597 7.33333H28.5484C30.2412 7.33486 31.8955 7.8518 33.3027 8.81886C34.7097 9.78592 35.8062 11.1597 36.4539 12.7668C37.1015 14.3738 37.2711 16.142 36.9412 17.848C36.6113 19.554 35.797 21.1213 34.6006 22.352C33.5913 23.3974 32.3382 24.1598 30.9607 24.5667L37.8266 36.6667H31.4032Z" fill="#383838"/>
</svg>